<svg width="24" height="24" viewBox="0 0 24 24" fill="none" xmlns="http://www.w3.org/2000/svg">
<rect x="8.66675" y="1.99997" width="3.33333" height="3.33333" fill="black"/>
<rect x="12" y="1.99997" width="3.33333" height="3.33333" fill="black"/>
<rect x="12" y="5.33331" width="3.33333" height="3.33333" fill="black"/>
<rect x="15.3333" y="5.33331" width="3.33333" height="3.33333" fill="black"/>
<rect x="18.6667" y="8.66664" width="3.33333" height="3.33333" fill="black"/>
<rect x="18.6667" y="12" width="3.33333" height="3.33333" fill="black"/>
<rect x="15.3333" y="15.3333" width="3.33333" height="3.33333" fill="black"/>
<rect x="12" y="18.6666" width="3.33333" height="3.33333" fill="black"/>
<rect x="8.66675" y="18.6666" width="3.33333" height="3.33333" fill="black"/>
<rect x="5.33325" y="15.3333" width="3.33333" height="3.33333" fill="black"/>
<rect x="2" y="12" width="3.33333" height="3.33333" fill="black"/>
<rect x="2" y="8.66664" width="3.33333" height="3.33333" fill="black"/>
<rect x="5.33325" y="8.66664" width="3.33333" height="3.33333" fill="black"/>
<rect x="8.66675" y="8.66664" width="3.33333" height="3.33333" fill="black"/>
<rect x="12" y="8.66664" width="3.33333" height="3.33333" fill="black"/>
<rect x="15.3333" y="8.66664" width="3.33333" height="3.33333" fill="black"/>
<rect x="5.33325" y="5.33331" width="3.33333" height="3.33333" fill="black"/>
</svg>
